# xmcd
#
# Track frame offsets: 
#        150
#        16473
#        33175
#        52029
#        69360
#        86998
#        103120
#        121739
#        139255
#        154579
#        173301
#        195290
#        218678
#        235582
#        249764
#
# Disc length: 3548 seconds
#
# Revision: 0
# Processed by: cddbd v1.5.2PL0 Copyright (c) Steve Scherf et al.
# Submitted via: ExactAudioCopy v1.1
#
DISCID=b50dda0f
DTITLE=Dana Winner - 30 - CD 1 (Hits)
DYEAR=2019
DGENRE=Chanson
TTITLE0=Woordenloos
TTITLE1=De Oude Man En De Zee
TTITLE2=Zeven Regenbogen
TTITLE3=Westenwind
TTITLE4=Geef De Kinderen Een Wereld
TTITLE5=Ik Hou Van Jou
TTITLE6=Regen Van Geluk
TTITLE7=Hopeloos En Verloren
TTITLE8=Dana Winner and Steve Hofmeyr - Vroeger Bracht Je Bloemen
TTITLE9=Dana Winner and André Hazes - Als Je Alles Weet
TTITLE10=Weer Verder Gaan
TTITLE11=One Moment In Time
TTITLE12=Een Zee Vol Dromen
TTITLE13=Eerste Liefde, Mooiste Liefde
TTITLE14=Waar Jij Ook Bent
EXTD=
EXTT0=
EXTT1=
EXTT2=
EXTT3=
EXTT4=
EXTT5=
EXTT6=
EXTT7=
EXTT8=
EXTT9=
EXTT10=
EXTT11=
EXTT12=
EXTT13=
EXTT14=
PLAYORDER=
